<svg viewBox="0 0 1024 1024" version="1.1" xmlns="http://www.w3.org/2000/svg" class=""><rect fill="#000000" width="1024px" height="1024px" x="0" y="0"/><g transform="matrix(2.2799609375,0,0,2.2799609375,216,216)"><circle cx="64" cy="64" r="64" fill="#ffffff"/><circle cx="64" cy="64" r="48" stroke="#000000" fill="none" stroke-width="3.653571367382254px" stroke-linecap="square"/><circle cx="64" cy="64" r="48" stroke="#000000" fill="none" stroke-width="3.653571367382254px" stroke-linecap="square"/><line x1="64" y1="2.18557e-08" x2="64" y2="128" stroke="#000000" fill="none" stroke-width="3.653571367382254px" stroke-linecap="square"/></g><g transform="matrix(2.2799609375,0,0,2.2799609375,516.165,216)"><circle cx="64" cy="64" r="64" fill="#ffffff"/><circle cx="32" cy="64" r="11.5" fill="#ffffff" stroke="#ffffff" stroke-width="3.653571367382254px" stroke-linecap="square"/><circle cx="32" cy="64" r="9" fill="#000000" stroke="#000000" stroke-width="3.653571367382254px" stroke-linecap="square"/></g><g transform="matrix(2.2799609375,0,0,2.2799609375,216,516.165)"><path d="M64 0H128V128H64C28.6538 128 0 99.3462 0 64C0 28.6538 28.6538 0 64 0Z" fill="#ffffff"/><circle cx="64" cy="96" r="11.5" fill="#ffffff" stroke="#ffffff" stroke-width="3.653571367382254px" stroke-linecap="square"/><circle cx="64" cy="96" r="9" fill="#000000" stroke="#000000" stroke-width="3.653571367382254px" stroke-linecap="square"/><circle cx="64" cy="32" r="11.5" fill="#ffffff" stroke="#ffffff" stroke-width="3.653571367382254px" stroke-linecap="square"/><circle cx="64" cy="32" r="9" fill="#000000" stroke="#000000" stroke-width="3.653571367382254px" stroke-linecap="square"/></g><g transform="matrix(2.2799609375,0,0,2.2799609375,516.165,516.165)"><g fill="none"><path d="M64 128H0L5.59506e-06 0L64 5.59506e-06C99.3462 8.68512e-06 128 28.6538 128 64C128 99.3462 99.3462 128 64 128Z" fill="#ffffff"/><path d="M32 0L32 128" stroke="#000000" fill="none" stroke-width="3.653571367382254px" stroke-linecap="square"/><circle cx="32" cy="32" r="11.5" fill="#ffffff" stroke="#ffffff" stroke-width="3.653571367382254px" stroke-linecap="square"/><circle cx="32" cy="32" r="9" fill="#000000" stroke="#000000" stroke-width="3.653571367382254px" stroke-linecap="square"/></g></g></svg>