<?xml version="1.0" encoding="UTF-8"?><svg id="Layer_2" xmlns="http://www.w3.org/2000/svg" xmlns:xlink="http://www.w3.org/1999/xlink" viewBox="0 0 448.42 246"><defs><style>.cls-1{fill:#fff;}</style></defs><g id="Layer_1-2"><image width="647" height="647" transform="translate(202.42) scale(.38)" xlink:href="stpxurbit1.png"/><g><path class="cls-1" d="M0,130.51C0,89.82,32.97,56.82,73.68,56.79c40.71-.03,73.76,33.02,73.74,73.73-.02,40.7-33.03,73.7-73.72,73.69C33.01,204.2,0,171.21,0,130.51Zm10.53-.02c0,34.87,28.24,63.14,63.14,63.19,34.87,.05,63.22-28.27,63.23-63.17,0-34.87-28.24-63.15-63.14-63.19-34.89-.04-63.22,28.27-63.23,63.17Z"/><path class="cls-1" d="M93.03,120.27h12.26c-.16,2.42-.5,4.77-1.12,7.07-.78,2.89-1.95,5.6-3.88,7.93-2.86,3.45-6.63,5.11-11.01,5.61-6.17,.71-11.62-1.15-16.67-4.54-1.73-1.15-3.53-2.21-5.34-3.22-1.32-.74-2.78-1.11-4.29-1.21-3.25-.21-5.7,1.3-7.06,4.47-.6,1.41-.96,2.92-1.46,4.46h-12.38c.21-1.55,.36-3.08,.62-4.59,.51-2.97,1.39-5.81,2.94-8.42,2.61-4.4,6.53-6.82,11.53-7.6,5.91-.92,11.32,.4,16.34,3.56,1.8,1.14,3.59,2.28,5.42,3.36,1.56,.92,3.22,1.59,5.04,1.83,3.24,.42,5.79-.8,7.23-3.74,.76-1.56,1.22-3.26,1.84-4.99Z"/></g></g></svg>