<?xml version="1.0" encoding="UTF-8"?><svg id="Layer_2" xmlns="http://www.w3.org/2000/svg" viewBox="0 0 230.73 216.34"><defs><style>.cls-1{fill:#fff;}</style></defs><g id="Layer_1-2"><path class="cls-1" d="M190.52,88.26c10.45,6.13,19.92,8.18,30.88,3.96,1.57,24.84,3.07,48.78,4.62,73.29-19.61-5.05-38.87-10.01-58.13-14.98-1.67,6.4,2.44,15.2,11.19,17.15,9.31,2.07,18.86,3.13,28.33,4.46,3.62,.51,7.4,.12,10.93,.9,11.05,2.45,16.02,15.59,9.44,24.81-4.07,5.71-9.31,9.53-16.66,10.44-31.82,3.91-63.55,8.74-95.74,7.97-7.06-.17-14.15-.42-21.15-1.3-11.04-1.39-22.02-3.35-33.39-5.12,.46-1.43,.57-2.25,.95-2.91,5.98-10.55,11.97-21.11,18.03-31.62,3.91-6.78,3.97-6.75-2.53-11.56-4.89,6.55-9.52,13.32-14.73,19.6-10.26,12.36-22.66,21.54-39.39,22.16-6.95,.26-13.98-1.22-20.93-2.24-.93-.14-2.28-2.31-2.23-3.48,.55-11.4,1.46-22.79,2.04-34.2,.15-2.98,1.81-3.73,4.17-4.32,11.48-2.85,22.94-5.76,34.4-8.66,.52-.13,1.02-.38,1.55-.57-4.06-7.84-13.05-11.49-22.39-8.98-5.56,1.49-11.04,3.3-16.89,5.06V6.06H114.25c.76,6.08,2.19,12.2,2.13,18.3-.08,7.15-2.9,13.48-9.43,17.49-13.7,8.42-27.41,16.83-41.09,25.3-5.89,3.64-12.28,4-18.81,2.81-11.93-2.16-23.81-4.55-35.72-6.83-1.09-.21-2.21-.29-3.3-.42-1.99,7.56,.44,12.17,8.35,14.35,9.5,2.63,19.17,4.64,28.76,6.92,.53,.13,1.04,.29,2.02,.56-1.05,6.33-2.16,12.52-3.08,18.74-1.49,10.01-1.95,20.01,1.94,29.65,6.7,16.59,20.19,24.22,36.95,25.48,30.22,2.28,56.94-7.75,80.72-25.97,7.32-5.61,12.32-13.11,15.03-22.06,3.39-11.2,.85-21.51-8.68-28.31-16.62-11.86-35.27-16.56-55.36-11.55-18.48,4.61-32.98,22.79-33.95,41.07-.71,13.33,7.39,22.24,20.72,21.4,10.67-.67,21.18-3.96,29.1-11.24,11.62-10.67,11.34-16.07-1.69-26.34-4.58-3.61-9.07-4.06-13.86-.46-1.91,1.43-4.04,2.57-6.48,4.09,3.09,3.9,6.13,7.74,9.76,12.32-7.55,1.41-14.24,2.65-21,3.91,2.71-17.9,8.28-28.27,30.65-32.02,10.1-1.69,19.93-.19,29.13,4.86,11.74,6.45,10.7,18.03,3.13,24.33-8.01,6.67-15.58,13.93-24,20.03-7.99,5.78-17.47,8.31-27.36,9.35-6.01,.64-11.92,2.22-17.9,3.18-24.51,3.94-34.61-15.17-31.73-33.73,1.47-9.43,5.46-17.77,12.03-24.78,17.11-18.26,36.84-32.06,62.21-36.03,5.25-.82,10.58-1.14,16.41-1.74-3.89-4.95-5.93-10.82-13.06-12.48-5.77-1.34-8.28-5.84-8.3-11.83,0-1.69,.04-3.4,.33-5.06,1.85-10.36,1.85-10.53,12.55-11.87,16.53-2.08,33.09-3.89,49.64-5.81,5.18-.6,10.35-1.42,15.54-1.67,5.92-.29,9.98,2.22,11.72,9.76,.69,3,.88,6.16,.96,9.25,.38,14.69,.62,29.38,.97,44.07,.27,11.53-3.62,15.96-14.71,18.55-4.91,1.15-9.4,4.07-14.98,6.6Zm-60.49,72.44c-3.9,9.56-3.69,31.15,.07,41.7,2.02,5.66,5.32,7.09,12.18,5.26,5.29-1.41,6.72-3.81,5.39-9.94-2.6-11.98-7.46-23.03-14.3-33.2-.83-1.23-1.96-2.27-3.33-3.83Zm38.54-107.25l1.43,.67c14.45-12.7,28.89-25.41,43.41-38.17-2.14-2.06-3.07-5.24-6.92-3.78-14.78,5.59-26.71,14.59-34,28.84-1.95,3.81-2.64,8.27-3.91,12.44Zm-87.19-8.77c-4.85-10.07-9.58-19.89-14.5-30.1-8.47,14.56-1.6,28.63,14.5,30.1Z"/></g></svg>